<?xml version="1.0" encoding="utf-8"?>
<!-- Generator: Adobe Illustrator 21.0.0, SVG Export Plug-In . SVG Version: 6.00 Build 0)  -->
<svg version="1.1" id="Layer_1" xmlns:svg="http://www.w3.org/2000/svg"
	 xmlns="http://www.w3.org/2000/svg" xmlns:xlink="http://www.w3.org/1999/xlink" x="0px" y="0px" viewBox="0 0 171 178"
	 style="enable-background:new 0 0 171 178;" xml:space="preserve">
<style type="text/css">
	.st0{fill:#3F3F3F;fill-opacity:0;stroke:#FF7F00;}
	.st1{fill:#FF7F00;}
	.st2{fill:#FFFFFF;}
	.st3{font-family:'Helvetica-Bold';}
	.st4{font-size:35.6419px;}
	.st5{fill:#3F3F3F;}
</style>
<g>
	<title  stroke="null">Layer 1</title>
	<rect id="svg_21" class="st0" width="171" height="178"/>
	<path id="svg_1" class="st1" d="M7.1,7.5c0,0,0,41.2,0,41.2s157.4,0,156.7,0c-0.7,0,0-41,0-41.2C163.9,7.3,7.1,7.5,7.1,7.5z"/>
	<text id="svg_2" transform="matrix(1 0 0 1 11.2432 39.2971)" class="st2 st3 st4">DAJACH</text>
	<g id="svg_16">
		<path id="svg_12" class="st5" d="M59,71v64l26-30L59,71z"/>
		<path id="svg_13" class="st5" d="M70,131l41-54l-17,53L70,131z"/>
		<path id="svg_14" class="st5" d="M59,55l87,1l-41,95H57l46-16l19-66L59,55z"/>
		<path id="svg_15" class="st5" d="M105,155l-79,2l-1,15L105,155z"/>
	</g>
</g>
</svg>
